<svg width="48" height="48" fill="none" xmlns="http://www.w3.org/2000/svg"><g clip-path="url(#clip0)"><path d="M46.967 22.253C50.602 35.375 44.314 48 33.295 48c-6.097 0-14.795-1-18.397-9.663C11.427 29.99.5 37.5 0 20.253 0 6 20.876-7.664 26.668 5.226c5.792 12.89 16.665 3.905 20.3 17.027h-.001z" fill="#E8F3FE"/><path d="M21.338 12s-1.683-.04-2.632 1.016c-.948 1.055-.803 2.81-.803 2.81s1.683.042 2.632-1.015c.949-1.057.803-2.81.803-2.81zm5.322 0s-.145 1.755.803 2.811c.948 1.056 2.63 1.014 2.63 1.014s.147-1.753-.801-2.81C28.343 11.96 26.66 12 26.66 12zm-11.197 1.193s-1.114 1.32-.951 2.76c.163 1.437 1.54 2.45 1.54 2.45l.007-.01c.29.251 1.36 1.094 2.538.972 1.379-.143 2.373-1.565 2.373-1.565s-1.242-1.188-2.62-1.045c-.786.082-1.438.575-1.86.987.29-.52.604-1.288.513-2.1-.163-1.439-1.54-2.448-1.54-2.448zm17.073 0s-1.377 1.012-1.54 2.45c-.093.813.22 1.578.513 2.1-.423-.414-1.075-.906-1.86-.988-1.378-.143-2.621 1.047-2.621 1.047s.995 1.422 2.373 1.565c1.177.122 2.248-.724 2.538-.974l.007.01s1.377-1.013 1.54-2.45c.164-1.44-.95-2.76-.95-2.76zm-19.768 5.421s-.682 1.61-.114 2.93c.568 1.322 2.172 1.854 2.172 1.854l.007-.018c.36.115 1.658.463 2.7-.123 1.218-.687 1.612-2.398 1.612-2.398s-1.583-.598-2.803.09c-.59.331-.983.902-1.235 1.404.09-.556.108-1.25-.165-1.884-.567-1.32-2.174-1.855-2.174-1.855zm22.462 0s-1.606.534-2.174 1.855c-.272.632-.254 1.328-.165 1.884-.252-.502-.645-1.073-1.235-1.405-1.22-.687-2.803-.089-2.803-.089s.394 1.712 1.613 2.4c1.041.585 2.339.238 2.7.123l.006.018s1.605-.534 2.172-1.855c.569-1.322-.114-2.93-.114-2.93zm-16.694 5.34s-1.644.371-2.331 1.63c-.331.606-.376 1.306-.337 1.87-.203-.522-.538-1.123-1.087-1.512-1.148-.812-2.781-.384-2.781-.384s.226 1.744 1.374 2.555c1.147.813 2.782.386 2.782.386l-.003-.016c.36-.1 1.643-.522 2.23-1.6.686-1.258.153-2.928.153-2.928zm10.926 0s-.532 1.671.154 2.93c.588 1.077 1.871 1.5 2.231 1.6l-.003.015s1.635.428 2.782-.384C35.774 27.303 36 25.558 36 25.558s-1.636-.428-2.783.384c-.548.39-.883.99-1.085 1.513.04-.565-.006-1.265-.337-1.872-.687-1.258-2.333-1.628-2.333-1.628zm-9.604 3.43s-1.537.718-1.96 2.096c-.24.786-.068 1.606.125 2.175-.341-.487-.886-1.093-1.636-1.328-1.327-.416-2.763.503-2.763.503s.714 1.593 2.041 2.01c1.155.361 2.335-.256 2.637-.43.591.643 1.298 1.075 2.054 1.368-.259.21-.488.461-.652.786a.945.945 0 00-.057.107l-.009.016a.964.964 0 00.18 1.041.86.86 0 001.109.124.918.918 0 00.328-.396c.085-.197.32-.39.914-.566.471-.14 1.126-.235 1.83-.333.704.098 1.359.193 1.83.333.593.176.829.37.914.566h.002c.07.162.184.3.327.396a.86.86 0 001.108-.124.95.95 0 00.179-1.04h.001l-.008-.017a.947.947 0 00-.06-.113 2.403 2.403 0 00-.65-.78c.756-.293 1.463-.725 2.054-1.369.3.174 1.48.794 2.637.432 1.327-.416 2.043-2.01 2.043-2.01s-1.436-.918-2.763-.502c-.75.235-1.297.841-1.638 1.328.193-.57.366-1.392.125-2.176-.423-1.38-1.96-2.097-1.96-2.097s-.85 1.52-.427 2.898c.12.388.328.718.564 1l-.002.001c-.905.824-2.4 1.135-3.976 1.355l-.3.042-.3-.042c-1.576-.22-3.072-.533-3.978-1.357.236-.282.447-.612.566-1 .423-1.379-.429-2.897-.429-2.897z" fill="#2C70C1"/></g><defs><clipPath id="clip0"><path fill="#fff" d="M0 0h48v48H0z"/></clipPath></defs></svg>