<svg width="48" height="48" fill="none" xmlns="http://www.w3.org/2000/svg"><g clip-path="url(#clip0)"><path d="M46.967 25.747C50.602 12.625 44.314 0 33.295 0c-6.097 0-8.7 3.504-15.397 11.663C11.2 19.822 1.65 8.478 0 25.747 1.386 41.66 18.652 56.064 26.668 42.774c7.298-12.1 16.665-3.906 20.3-17.027h-.001z" fill="#E2F9C3"/><path fill-rule="evenodd" clip-rule="evenodd" d="M34 15a1 1 0 11-2 0 1 1 0 012 0zm1 0a2 2 0 11-4 0 2 2 0 014 0zm-20 4.5a1.5 1.5 0 100-3 1.5 1.5 0 000 3zm0 1.5a3 3 0 100-6 3 3 0 000 6zm11.5-3c-2.181 0-3.56.77-4.397 1.707-.296.33-.51.667-.667.97-.909-.266-2.21-.363-3.49.49-1.555 1.037-2.187 2.467-2.378 3.605a5.615 5.615 0 00-1.927 1.124C12.723 26.722 12 27.97 12 29.691c0 2.008.827 3.403 2.08 4.253C15.271 34.753 16.746 35 18 35h12.5c1.14 0 2.482-.424 3.554-1.264 1.099-.861 1.946-2.19 1.946-3.957 0-1.664-.598-2.99-1.567-3.897a4.885 4.885 0 00-2.187-1.17c.154-1.26-.151-2.647-.813-3.806C30.516 19.303 28.838 18 26.5 18zm-3.541 4.284l.018-.064c.065-.234.2-.713.617-1.18.428-.48 1.248-1.04 2.906-1.04 1.5 0 2.572.807 3.196 1.899.65 1.136.736 2.446.384 3.271l-.594 1.392H31c.774 0 1.522.27 2.067.78.53.497.933 1.278.933 2.437 0 1.058-.486 1.84-1.18 2.382-.719.564-1.627.839-2.32.839H18c-1.039 0-2.063-.213-2.798-.711C14.528 31.83 14 31.072 14 29.69c0-1.1.44-1.823.979-2.308.567-.511 1.259-.765 1.682-.833l.839-.137v-.85c0-.688.294-1.89 1.555-2.73.99-.661 2.087-.19 2.414.014l1.116.7.374-1.262zM18.72 27.64c0-1.73.927-2.796 2.43-2.796 1.228 0 2.167.838 2.246 1.996h-1.054c-.104-.611-.574-1.014-1.192-1.014-.814 0-1.32.694-1.32 1.815 0 1.122.506 1.818 1.324 1.818.62 0 1.087-.375 1.191-.961H23.4c-.09 1.15-1 1.942-2.25 1.942-1.5 0-2.43-1.066-2.43-2.8zm5.28 0c0-1.727.938-2.796 2.404-2.796 1.473 0 2.396 1.073 2.396 2.796 0 1.726-.92 2.8-2.396 2.8-1.48 0-2.404-1.074-2.404-2.8zm3.735 0c0-1.114-.518-1.818-1.331-1.818-.81 0-1.335.704-1.335 1.818 0 1.11.515 1.822 1.335 1.822.813 0 1.331-.711 1.331-1.822zm1.545 1.656c0-.658.476-1.091 1.2-1.091.701 0 1.151.378 1.151.964 0 .403-.205.73-.768 1.17l-.367.33v.062h1.184v.726h-2.339v-.644l.892-.815c.457-.406.566-.549.566-.743 0-.198-.148-.334-.357-.334-.222 0-.373.15-.373.37v.021h-.789v-.016z" fill="#3A8241"/></g><defs><clipPath id="clip0"><path fill="#fff" d="M0 0h48v48H0z"/></clipPath></defs></svg>