<svg width="48" height="48" fill="none" xmlns="http://www.w3.org/2000/svg"><g clip-path="url(#clip0)"><path d="M46.967 25.747C50.602 12.625 44.314 0 33.295 0c-6.097 0-8.7 3.504-15.397 11.663C11.2 19.822 1.65 8.478 0 25.747 1.386 41.66 18.652 56.064 26.668 42.774c7.298-12.1 16.665-3.906 20.3-17.027h-.001z" fill="#FFDD76"/><path d="M21.65 14.559h.525l.199-.485c.33-.806.91-1.293 1.626-1.293.716 0 1.296.487 1.626 1.293l.199.485H32c.257 0 .495.08.692.215h-4.018v3.556h-9.347v-3.556h-4.019c.197-.136.435-.215.692-.215h5.65zm11.313.997v-.525c.16.206.256.465.256.747V34c0 .28-.096.54-.256.747V15.556zm-.781 19.448h.51c-.203.14-.445.215-.692.215H16a1.22 1.22 0 01-.692-.215H32.182zm-17.145-.782v.525A1.214 1.214 0 0114.78 34V15.778c0-.282.096-.54.256-.747v.525l.001 18.666zm13.38-18.666v-.782H25.69v-.107c0-.95-.762-1.67-1.69-1.67-.928 0-1.69.72-1.69 1.67v.107h-2.728v3.34h8.836v-.781l-.001-1.777zm-5.872 13.523l.546.534.546-.534 5.175-5.06.168.165-5.89 5.758-3.16-3.091.167-.165 2.448 2.393z" fill="#63522B" stroke="#63522B" stroke-width="1.563"/></g><defs><clipPath id="clip0"><path fill="#fff" d="M0 0h48v48H0z"/></clipPath></defs></svg>