<svg width="48" height="48" fill="none" xmlns="http://www.w3.org/2000/svg"><g clip-path="url(#clip0)"><path d="M46.967 25.747C50.602 12.625 44.314 0 33.295 0c-6.097 0-8.7 3.504-15.397 11.663C11.2 19.822 1.65 8.478 0 25.747 1.386 41.66 18.652 56.064 26.668 42.774c7.298-12.1 16.665-3.906 20.3-17.027h-.001z" fill="#FFDD76"/><path d="M32.754 12a.564.564 0 00-.572.576c0 .326.248.576.572.576h.533l-6.422 6.49-5.698-5.741a.548.548 0 00-.8 0l-6.289 6.259a.56.56 0 000 .806.546.546 0 00.8 0l5.889-5.856 5.698 5.741c.229.23.59.23.8 0l6.842-6.893v.538c0 .326.247.576.571.576.324 0 .572-.25.572-.576v-1.92a.579.579 0 00-.362-.538.677.677 0 00-.21-.038h-1.924zm-1.696 9.408a.564.564 0 00-.572.576v13.44c0 .326.248.576.572.576h3.43c.324 0 .571-.25.571-.576v-13.44a.564.564 0 00-.571-.576h-3.43zm-18.504.5a.552.552 0 00-.553.594v.077c0 .307.267.557.59.557a.554.554 0 00.553-.595v-.077c0-.326-.266-.557-.59-.557v.001zm6.307 1.42a.562.562 0 00-.571.576v11.52c0 .326.247.576.571.576h3.43c.324 0 .572-.25.572-.576v-11.52a.564.564 0 00-.571-.576h-3.431zm.572 1.152h2.287v10.368h-2.287V24.48zm5.526 2.688a.562.562 0 00-.571.576v7.68c0 .326.247.576.571.576h3.43c.325 0 .572-.25.572-.576v-7.68a.564.564 0 00-.571-.576h-3.431zm.572 1.152h2.287v6.528h-2.287V28.32zm-12.768.768a.562.562 0 00-.571.576v5.76c0 .326.247.576.571.576h3.43c.324 0 .572-.25.572-.576v-5.76a.563.563 0 00-.572-.576h-3.43zm.572 1.152h2.287v4.608h-2.287V30.24z" fill="#63522B"/></g><defs><clipPath id="clip0"><path fill="#fff" d="M0 0h48v48H0z"/></clipPath></defs></svg>