<svg width="48" height="48" fill="none" xmlns="http://www.w3.org/2000/svg"><g clip-path="url(#clip0)"><path d="M1.033 25.747C-2.602 12.625 3.686 0 14.705 0c6.097 0 8.7 3.504 15.397 11.663C36.8 19.822 46.35 8.478 48 25.747 46.614 41.66 29.348 56.064 21.332 42.774c-7.298-12.1-16.665-3.906-20.3-17.027h.001z" fill="#E6F1F9"/><path d="M12 12v8h2v-1h6a1 1 0 011 1v10c0 2.75 2.25 5 5 5h8v1h2v-8h-2v1h-6a1 1 0 01-1-1V18c0-2.75-2.25-5-5-5h-8v-1h-2zm2 3h8c1.669 0 3 1.331 3 3v5h-2v-4c0-1.093-.907-2-2-2h-7v-2zm9 10h2v4c0 1.093.907 2 2 2h7v2h-8c-1.669 0-3-1.331-3-3v-5z" fill="#036FC7"/><path d="M20 23h8v3h-8v-3z" fill="#036FC7"/></g><defs><clipPath id="clip0"><path fill="#fff" d="M0 0h48v48H0z"/></clipPath></defs></svg>