<svg width="48" height="48" fill="none" xmlns="http://www.w3.org/2000/svg"><g clip-path="url(#clip0)"><path d="M33.295 48c11.019 0 17.307-12.625 13.672-25.747-3.634-13.122-13.001-4.927-20.3-17.027C18.654-8.064 1.387 6.339 0 22.253.53 30.835 7.93 48 33.295 48z" fill="#E6F1F9"/><path d="M14.015 14v13.203C12.918 27.836 12 29.03 12 30.363 12 32.362 13.664 34 15.692 34H26.77c2.028 0 3.692-1.639 3.692-3.636a3.54 3.54 0 00-.517-1.819L32.5 28.5v1.864C32.5 32.36 33.972 34 36 34v-1.5c-1.03 0-2-1.121-2-2.136V23h-1.5v3.756l-3.445-.029 1.406-3.467v-1.987H26.77v-2.727c0-.514.402-.91.923-.91v-1.818c-1.518 0-2.769 1.232-2.769 2.728v2.727h-1.206L20.947 14h-6.932zm1.677 1.818h3.976l2.077 5.455h-6.053v-5.455zm0 7.273h12.85L27 26.727H15.692v-3.636zm0 5.455H26.77c1.031 0 1.846.803 1.846 1.818 0 1.015-.815 1.818-1.846 1.818H15.692c-1.03 0-1.846-.803-1.846-1.818 0-1.015.816-1.818 1.846-1.818zm0 .909a.924.924 0 00-.652.266.904.904 0 000 1.286.93.93 0 001.504-.294.901.901 0 00-.199-.992.93.93 0 00-.653-.266zm3.693 0a.928.928 0 00-.653.266.901.901 0 000 1.286.93.93 0 001.504-.294.901.901 0 00-.199-.992.93.93 0 00-.652-.266zm3.692 0a.928.928 0 00-.653.266.901.901 0 000 1.286.93.93 0 001.505-.294.901.901 0 00-.199-.992.93.93 0 00-.653-.266zm3.692 0a.928.928 0 00-.653.266.901.901 0 000 1.286.93.93 0 001.505-.294.901.901 0 00-.199-.992.93.93 0 00-.653-.266z" fill="#036FC7"/></g><defs><clipPath id="clip0"><path fill="#fff" d="M0 0h48v48H0z"/></clipPath></defs></svg>