<svg width="48" height="48" fill="none" xmlns="http://www.w3.org/2000/svg"><g clip-path="url(#clip0)"><path d="M46.967 25.747C50.602 12.625 44.314 0 33.295 0c-6.097 0-8.7 3.504-15.397 11.663C11.2 19.822 1.65 8.478 0 25.747 1.386 41.66 18.652 56.064 26.668 42.774c7.298-12.1 16.665-3.906 20.3-17.027h-.001z" fill="#E6F1F9"/><mask id="a" maskUnits="userSpaceOnUse" x="12" y="14" width="24" height="20"><path d="M35 14H13a1 1 0 00-1 1v18a1 1 0 001 1h22a1 1 0 001-1V15a1 1 0 00-1-1z" fill="#fff"/></mask><g mask="url(#a)"><path d="M35 14H13a1 1 0 00-1 1v18a1 1 0 001 1h22a1 1 0 001-1V15a1 1 0 00-1-1z" stroke="#036FC7" stroke-width="4"/><path d="M12 20h16v2H12v-2zm0 6h7v2h-7v-2z" fill="#036FC7"/><path d="M18 15h2v6h-2v-6zm5 6h2v5h-2v-5zm5-6h2v6h-2v-6z" fill="#036FC7"/><path d="M35 32V18c-7 0-5.5 3.5-7 6s-4.36 1.472-7 2c-2.5.5-2.5 5-2.5 7H34a1 1 0 001-1z" stroke="#036FC7" stroke-width="2"/></g></g><defs><clipPath id="clip0"><path fill="#fff" d="M0 0h48v48H0z"/></clipPath></defs></svg>