<svg width="48" height="48" fill="none" xmlns="http://www.w3.org/2000/svg"><g clip-path="url(#clip0)"><path d="M48 27.575C48 16.32 46.403 0 26.452 0 6.501 0 17.257 19.311 5.129 26.765-8.19 34.95 6.909 48 22.195 48 33.97 48 48 42.173 48 27.575z" fill="#E2F9C3"/><path d="M20.143 15c-.929 0-1.734.38-2.248.958-.515.578-.752 1.316-.752 2.042 0 .726.237 1.464.752 2.042.514.579 1.32.958 2.248.958.928 0 1.734-.38 2.248-.958A3.058 3.058 0 0023.143 18c0-.726-.238-1.464-.752-2.042-.514-.579-1.32-.958-2.248-.958zm7.714 0c-.928 0-1.734.38-2.248.958A3.058 3.058 0 0024.857 18c0 .726.238 1.464.752 2.042.514.579 1.32.958 2.248.958.929 0 1.734-.38 2.249-.958.514-.578.751-1.316.751-2.042 0-.726-.237-1.464-.751-2.042-.515-.579-1.32-.958-2.249-.958zm-7.714 1.714c.5 0 .766.157.966.382.2.225.32.559.32.904s-.12.679-.32.904c-.2.225-.466.382-.966.382-.5 0-.766-.157-.966-.382-.2-.225-.32-.559-.32-.904s.12-.679.32-.904c.2-.225.466-.382.966-.382zm7.714 0c.5 0 .766.157.966.382.2.225.32.559.32.904s-.12.679-.32.904c-.2.225-.466.382-.966.382-.5 0-.766-.157-.966-.382-.2-.225-.32-.559-.32-.904s.12-.679.32-.904c.2-.225.466-.382.966-.382zM16.286 21c-.786 0-1.484.326-1.927.824a2.614 2.614 0 00-.645 1.747c0 .513.235 1.002.534 1.448-1.316.734-2.248 2.09-2.248 3.695h1.714a2.559 2.559 0 012.572-2.571 2.55 2.55 0 012.551 2.375A6.796 6.796 0 0017.143 33h1.714A5.13 5.13 0 0124 27.857 5.13 5.13 0 0129.143 33h1.714c0-1.716-.645-3.28-1.694-4.482a2.55 2.55 0 012.551-2.375 2.56 2.56 0 012.572 2.571H36c0-1.575-.871-2.943-2.146-3.688.29-.442.432-.95.432-1.455a2.61 2.61 0 00-.645-1.747C33.198 21.326 32.5 21 31.714 21s-1.484.326-1.927.824a2.614 2.614 0 00-.644 1.747c0 .505.142 1.013.432 1.455a4.297 4.297 0 00-1.873 2.232 6.863 6.863 0 00-1.079-.583 3.51 3.51 0 00.806-2.246c0-.834-.274-1.679-.86-2.337C25.985 21.432 25.072 21 24 21c-1.072 0-1.984.433-2.57 1.092-.585.658-.859 1.503-.859 2.337 0 .799.269 1.6.806 2.246a6.909 6.909 0 00-1.085.586 4.392 4.392 0 00-1.969-2.241c.3-.447.534-.936.534-1.449 0-.619-.202-1.25-.644-1.747-.443-.498-1.142-.824-1.927-.824zm0 1.714c.357 0 .516.103.644.248a.937.937 0 01.213.61.934.934 0 01-.213.609c-.128.145-.287.248-.644.248-.357 0-.516-.103-.645-.248a.936.936 0 01-.212-.61.94.94 0 01.212-.609c.128-.145.288-.248.645-.248zm7.714 0c.643 0 1.016.21 1.287.516.271.306.427.746.427 1.199 0 .453-.155.893-.427 1.198-.272.305-.644.516-1.287.516-.643 0-1.016-.21-1.287-.516-.271-.306-.427-.746-.427-1.198 0-.452.155-.894.427-1.2.272-.306.644-.515 1.287-.515zm7.714 0c.357 0 .516.103.645.248a.936.936 0 01.212.61.94.94 0 01-.212.609c-.128.145-.288.248-.645.248-.357 0-.516-.103-.644-.248a.937.937 0 01-.213-.61c0-.239.084-.464.213-.609.128-.145.287-.248.644-.248z" fill="#3A8241"/></g><defs><clipPath id="clip0"><path fill="#fff" d="M0 0h48v48H0z"/></clipPath></defs></svg>