<svg width="48" height="48" fill="none" xmlns="http://www.w3.org/2000/svg"><g clip-path="url(#clip0)"><path d="M1.033 25.747C-2.602 12.625 3.686 0 14.705 0c6.097 0 8.7 3.504 15.397 11.663C36.8 19.822 46.35 8.478 48 25.747 46.614 41.66 29.348 56.064 21.332 42.774c-7.298-12.1-16.665-3.906-20.3-17.027h.001z" fill="#FFDD76"/><path d="M12.72 33h22.56c.408 0 .72-.32.72-.739v-3.176a.759.759 0 00-.528-.714l-.672-.197c-.12-.025-.192-.148-.192-.271v-3.256c0-4.088-2.28-7.855-5.832-9.677v-.222c0-.96-.768-1.748-1.704-1.748h-6.144c-.936 0-1.704.788-1.704 1.748v.222c-3.552 1.847-5.832 5.59-5.832 9.677v3.256a.285.285 0 01-.192.27l-.672.198a.736.736 0 00-.528.714v3.176c0 .419.336.739.72.739zm.72-3.349l.144-.05a1.781 1.781 0 001.248-1.673v-3.256c0-3.275 1.704-6.304 4.392-7.978v3.373c0 .419.312.739.72.739s.72-.32.72-.739v-5.295c0-.147.12-.27.264-.27h6.144a.27.27 0 01.264.27v.69c0 .05 0 .197.024.345v4.26c0 .419.312.739.72.739s.72-.32.72-.739v-1.453c2.4 1.354 2.928 2.783 2.928 6.033v3.256c0 .222.048.419.12.616H19.944c-.408 0-.72.32-.72.738s.312.739.72.739H33.12v1.527H13.44v-1.872z" fill="#63522B"/></g><defs><clipPath id="clip0"><path fill="#fff" d="M0 0h48v48H0z"/></clipPath></defs></svg>