<svg width="48" height="48" fill="none" xmlns="http://www.w3.org/2000/svg"><g clip-path="url(#clip0)"><path d="M33.295 48c11.019 0 17.307-12.625 13.672-25.747-3.634-13.122-13.001-4.927-20.3-17.027C18.654-8.064 1.387 6.339 0 22.253.53 30.835 7.93 48 33.295 48z" fill="#FFDD76"/><mask id="a" maskUnits="userSpaceOnUse" x="12" y="14" width="24" height="20"><path d="M32 16v7l4-3.5-4-3.5zm-13.25-2a.75.75 0 00-.75.75v18.5a.75.75 0 00.75.75h10.5a.75.75 0 00.75-.75v-18.5a.75.75 0 00-.75-.75h-10.5zM12 19v1.5h1.5V19H12zm3 0v1.5h1.5V19H15zm4.5-3.5h9v17h-9v-17zm1.75 1.5a.75.75 0 00-.729 1.046.751.751 0 00.729.454h5.5a.75.75 0 00.729-1.046.751.751 0 00-.729-.454h-5.5zM16 24l-4 3.5 4 3.5v-7zm15.5 3v1.5H33V27h-1.5zm3 0v1.5H36V27h-1.5z" fill="#fff"/></mask><g mask="url(#a)"><path d="M32 16v7l4-3.5-4-3.5zm-13.25-2a.75.75 0 00-.75.75v18.5a.75.75 0 00.75.75h10.5a.75.75 0 00.75-.75v-18.5a.75.75 0 00-.75-.75h-10.5zM12 19v1.5h1.5V19H12zm3 0v1.5h1.5V19H15zm4.5-3.5h9v17h-9v-17zm1.75 1.5a.75.75 0 00-.729 1.046.751.751 0 00.729.454h5.5a.75.75 0 00.729-1.046.751.751 0 00-.729-.454h-5.5zM16 24l-4 3.5 4 3.5v-7zm15.5 3v1.5H33V27h-1.5zm3 0v1.5H36V27h-1.5z" fill="#63522B" stroke="#63522B" stroke-width="6.25"/></g></g><defs><clipPath id="clip0"><path fill="#fff" d="M0 0h48v48H0z"/></clipPath></defs></svg>