<svg width="48" height="48" fill="none" xmlns="http://www.w3.org/2000/svg"><g clip-path="url(#clip0)"><path d="M46.967 25.747C50.602 12.625 44.314 0 33.295 0c-6.097 0-8.7 3.504-15.397 11.663C11.2 19.822 1.65 8.478 0 25.747 1.386 41.66 18.652 56.064 26.668 42.774c7.298-12.1 16.665-3.906 20.3-17.027h-.001z" fill="#E6F1F9"/><path d="M27.923 19c-.555 0-.923.368-.923.923V29.5c0 .462.368.923.923.923.184-1.568 1.415-2.923 3.078-2.923 1.662 0 2.816 1.338 3 3h1c.555 0 1-.406 1-.962v-4.615c0-.83-.75-1.846-.75-1.846l-2.02-3.115c-.462-.556-.74-.924-1.385-.924L27.923 19zm1.078 2h3l2.066 3.087c.184.277.433.635.433.913H29l.001-4zm-13 8c-1.173 0-2 .828-2 2 0 1.172.828 2 2 2 1.172 0 2-.828 2-2 0-1.172-.83-2-2-2zm15 0c-1.172 0-2 .828-2 2 0 1.172.828 2 2 2 1.172 0 2-.828 2-2 0-1.172-.829-2-2-2zM20 31c0-1.172.828-2 2-2 1.172 0 2 .828 2 2 0 1.172-.828 2-2 2-1.171 0-2-.828-2-2zm-6.447-10A2 2 0 0113 18.601l1.114-2.39a2 2 0 012.193-1.118l4.055.786c.16.031.316.081.464.15l3.693 1.722a1.44 1.44 0 01.696 1.914l-2.492 5.54a1.44 1.44 0 01-1.914.696l-3.692-1.722a1.998 1.998 0 01-.415-.259L13.553 21z" fill="#036FC7"/><path d="M12.5 27c-.555 0-.5.445-.5 1v1.5c0 .555-.055.962.5.962h.5V28h12v2.462l.215-.039c.555 0 .785-.368.785-.923V28c0-.555-.445-1-1-1H12.5z" fill="#036FC7"/></g><defs><clipPath id="clip0"><path fill="#fff" d="M0 0h48v48H0z"/></clipPath></defs></svg>