<svg width="48" height="48" fill="none" xmlns="http://www.w3.org/2000/svg"><g clip-path="url(#clip0)"><path d="M33.295 48c11.019 0 17.307-12.625 13.672-25.747-3.634-13.122-13.001-4.927-20.3-17.027C18.654-8.064 1.387 6.339 0 22.253.53 30.835 7.93 48 33.295 48z" fill="#E8F3FE"/><path d="M20.374 12.9l-.878 1.13-.002.004a.914.914 0 01-.418.3l-1.336.479 2.634-1.913zm0 0a1.844 1.844 0 011.984-.627h.002l1.356.39c.17.054.363.054.532 0l1.357-.39h.001c.736-.217 1.53.04 1.984.627l.878 1.13.003.004c.104.13.243.242.417.3l1.336.479a1.847 1.847 0 011.231 1.67l.044 1.41c0 .188.056.36.17.505l.808 1.169.002.002c.434.605.434 1.45 0 2.055l-.002.003-.812 1.174-.001.002a.893.893 0 00-.165.497l-.044 1.41a1.847 1.847 0 01-1.23 1.67L20.374 12.9zm0 0l9.851 13.48-9.851-13.48zm-3.864 3.58v.002l-.044 1.41a.894.894 0 01-.165.498l-.001.002-.81 1.17a1.942 1.942 0 00.021 2.087l.807 1.166a.8.8 0 01.17.505l.044 1.41v.002c.02.742.514 1.413 1.23 1.67l.7.238.19.063-.07.189-2.523 6.826a.446.446 0 00.122.482c.14.123.342.154.514.078a2.643 2.643 0 013.505 1.27c.075.161.24.256.415.256h.013c.199-.02.36-.132.417-.302l.001-.005 2.524-6.87.026-.073.07-.035.044-.021.012-.007.013-.005a.879.879 0 01.536 0l1.357.39c.737.217 1.53-.04 1.985-.628l.79-1.021.217-.28.121.332 2.019 5.5.103.28-.298-.017a3.635 3.635 0 00-2.75.99l-.214.206-.104-.28-1.14-3.064c-.097-.254-.36-.366-.58-.28-.247.1-.369.366-.285.572l.002.006 1.558 4.261c.058.16.227.288.418.307h.013a.467.467 0 00.417-.26 2.643 2.643 0 013.504-1.266L16.51 16.48zm-.001 0l14.894 17.754L16.509 16.48zm0 0a1.847 1.847 0 011.23-1.67l-1.23 1.67zm14.894 17.754a.482.482 0 00.513-.078.446.446 0 00.122-.48l-2.502-6.85-.068-.186.188-.066.57-.195 1.177 7.855zm0 0l-1.178-7.855 1.178 7.855zm-11.711-6.857l-.215-.273-.121.326-2.018 5.435-.098.264h.544c.419 0 .834.063 1.226.205.487.19.921.438 1.27.782l.215.214.105-.285 1.777-4.827.097-.262h-.28c-.064 0-.127.006-.18.01h-.004c-.048.006-.097.01-.145.01a1.892 1.892 0 01-1.47-.707l-.703-.891zm8.446-6.77c0-2.262-1.866-4.11-4.145-4.11-2.278 0-4.144 1.848-4.144 4.11 0 2.262 1.866 4.108 4.144 4.108 2.279 0 4.145-1.846 4.145-4.11v.002zM23.53 19.52c0-.26.196-.456.463-.456s.463.197.463.456v2.175c0 .26-.196.456-.463.456a.448.448 0 01-.463-.456V19.52z" fill="#2C70C1" stroke="#2C70C1" stroke-width=".391"/></g><defs><clipPath id="clip0"><path fill="#fff" d="M0 0h48v48H0z"/></clipPath></defs></svg>