<svg width="43" height="41" fill="none" xmlns="http://www.w3.org/2000/svg"><path d="M25.034.477l-1.12.257s-8.863 1.903-12.73 8.603c-4.408 7.638.536 14.941.536 14.941l1.15 1.688 1.445-1.454s1.275-1.34 3.67-2.154c2.396-.814 5.736-1.084 10.093 1.432 6.488 3.747 9.018 9.823 9.761 11.78-2.02.91-9.308 3.896-16.434-.22-3.247-1.874-5.016-3.829-6.004-5.152 2.718-.373 5.138-.074 7.186.477 4.32 1.161 6.851 3.474 6.851 3.474l2.253-2.43s-.783-.747-2.21-1.64a22.752 22.752 0 00-6.051-2.65C15.401 26.214 4.394 25.494 0 38.013l4.395.031c1.59-4.485 3.902-6.362 6.934-6.955.983 1.5 3.972 4.59 8.408 7.151 10.032 5.794 21.182-.23 21.182-.23l1.21-.626-.394-1.312s-3.038-10.003-11.99-15.173a17.888 17.888 0 00-4.57-1.856c.941-1.143 1.9-2.569 2.568-4.66 2.241-6.97-2.034-12.975-2.034-12.975l-.675-.931zM23.469 4.45c.761 1.32 2.446 4.589 1.07 8.866-.69 2.14-1.697 3.544-2.53 4.381-.83.837-1.327 1.04-1.327 1.04-1.34.076-2.732.108-3.786.463-.254.086-.49.206-.722.305.407-.901.84-1.796 1.323-2.608a44.54 44.54 0 012.417-3.66l-2.632-2.063s-1.313 1.71-2.67 3.997a34.403 34.403 0 00-1.714 3.285c-.498-1.884-.548-4.412 1.198-7.436 2.427-4.207 7.65-6.03 9.373-6.57z" fill="#232B30"/></svg>