<svg width="237" height="44" fill="none" xmlns="http://www.w3.org/2000/svg"><path d="M14.667 2.068L1.379 22l13.288 19.932L27.955 22 14.667 2.068zm0-2.068l14.666 22-14.666 22L0 22 14.667 0z" fill="#FFC22D"/><path d="M10.677 16.852l-1.31 1.76-.547 5.573v-6.13l1.857-1.203zm3.443-5.368l-1.702 1.79-.577 2.713V13.36l1.31-1.114v.058l.968-.821z" fill="#FFC22D"/><path d="M6.404 24.185H8.82l-2.21.411-.94 1.804.733-2.215zm6.405-8.829v-1.613l1.858-1.438v1.804l-1.858 1.247zm.753 10.897h-.577v-1.818l.577-.059v1.877zm0-3.945l-.577.132v-1.819l.577-.205v1.892zm0-3.696l-.577.264v-1.833l.577-.323v1.892zm-1.682 7.641h-.47v-1.642l.47-.059v1.701zm0-3.549l-.47.103v-1.643l.47-.161v1.701zm0-3.329l-.47.205v-1.643l.47-.264v1.702zm-1.447 6.878h-.391v-1.496l.39-.044v1.54zm0-3.212l-.391.088v-1.496l.39-.132v1.54zm0-3.021l-.391.176V18.7l.39-.22v1.54z" fill="#FFC22D"/><path d="M14.12 11.484l.547-.528-1.516 1.29V9.974l1.516-2.2 1.515 2.2v2.274l1.31 1.114v2.64l3.032 2.039v6.13h2.405l.733 2.23h-8.995V14.109l1.857 1.247v-1.613l-1.857-1.438V11.03l-.548.455zm.068-1.144l-.46.425v.88l.46-.396v-.909zm2.16 6.703l-.586-.323v1.892l.586.264v-1.833zm0 3.578l-.586-.205v1.892l.586.132v-1.819zm0 3.814l-.586-.059v1.877h.586v-1.818zm2.553 1.818h.39v-1.496l-.39-.044v1.54zm0-3.212l.39.088v-1.496l-.39-.132v1.54zm0-3.021l.39.176V18.7l-.39-.22v1.54zm-1.448 6.233h.48v-1.642l-.48-.059v1.701zm0-3.549l.48.117V21.18l-.48-.162v1.687zm0-3.33l.48.22v-1.642l-.48-.264v1.687zm-2.385-8.11l.46.396v-.88l-.46-.425v.909z" fill="#FFC22D"/><path d="M14.12 11.484l-.969.821v-.058l1.516-1.276-.548.513zm11.351 14.843l-21.56.073 10.756 16.133L25.47 26.327z" fill="#FFC22D"/><path d="M52.146 19.5c-.594-3.281-3.219-5.219-6.438-5.219-4.093 0-7.062 3.156-7.062 8.219 0 5.063 2.969 8.219 7.062 8.219 3.22 0 5.844-1.938 6.438-5.219h-1.938c-.468 2.219-2.375 3.406-4.5 3.406-2.906 0-5.187-2.25-5.187-6.406s2.281-6.406 5.187-6.406c2.125 0 4.032 1.187 4.5 3.406h1.938zm2.256-3.281h5.03V30.5h1.938V16.219h5.032V14.5h-12v1.719zM69.392 30.5h1.937v-5.844h3.5c3.727 0 5.407-2.265 5.407-5.093 0-2.829-1.68-5.063-5.438-5.063h-5.406v16zm1.937-7.563V16.22h3.407c2.601 0 3.593 1.422 3.593 3.343 0 1.922-.992 3.375-3.562 3.375h-3.438zm25.528-.437c0-5.063-2.969-8.219-7.063-8.219-4.093 0-7.062 3.156-7.062 8.219 0 5.063 2.969 8.219 7.062 8.219 4.094 0 7.063-3.157 7.063-8.219zm-1.875 0c0 4.156-2.281 6.406-5.188 6.406-2.906 0-5.187-2.25-5.187-6.406s2.281-6.406 5.187-6.406c2.907 0 5.188 2.25 5.188 6.406zm5.133-8v16h1.875l8.718-12.563h.157V30.5h1.937v-16h-1.875l-8.75 12.594h-.156V14.5h-1.906zm7.875-4c0 .813-.438 1.531-1.532 1.531-1.093 0-1.5-.719-1.5-1.531h-1.718c0 1.688 1.25 2.875 3.218 2.875 2 0 3.25-1.188 3.25-2.875h-1.718zm18.095 20h2.313l-6.688-8.969 6.469-7.031h-2.312l-6.407 6.938h-.843V14.5h-1.938v16h1.938v-7.344h1.968l5.5 7.344zm17.565-8c0-5.063-2.969-8.219-7.063-8.219-4.094 0-7.062 3.156-7.062 8.219 0 5.063 2.968 8.219 7.062 8.219s7.063-3.157 7.063-8.219zm-1.875 0c0 4.156-2.282 6.406-5.188 6.406-2.906 0-5.187-2.25-5.187-6.406s2.281-6.406 5.187-6.406 5.188 2.25 5.188 6.406zm5.133 8h1.937v-7.156h8.531V30.5h1.938v-16h-1.938v7.125h-8.531V14.5h-1.937v16zm15.41-14.281h5.031V30.5h1.937V16.219h5.032V14.5h-12v1.719zm14.99 14.281h1.937v-5.844h3.5c3.727 0 5.407-2.265 5.407-5.093 0-2.829-1.68-5.063-5.438-5.063h-5.406v16zm1.937-7.563V16.22h3.407c2.601 0 3.593 1.422 3.593 3.343 0 1.922-.992 3.375-3.562 3.375h-3.438zm25.528-.437c0-5.063-2.969-8.219-7.063-8.219-4.093 0-7.062 3.156-7.062 8.219 0 5.063 2.969 8.219 7.062 8.219 4.094 0 7.063-3.157 7.063-8.219zm-1.875 0c0 4.156-2.281 6.406-5.188 6.406-2.906 0-5.187-2.25-5.187-6.406s2.281-6.406 5.187-6.406c2.907 0 5.188 2.25 5.188 6.406zm3.758 8h.593c3.532 0 4.243-2.875 4.438-7.906l.25-6.375h5.969V30.5h1.937v-16h-9.75l-.281 7.719c-.172 4.718-.688 6.5-2.688 6.5h-.468V30.5zm18.996-9.281V14.5h-1.938v16h6c3.438 0 5.313-1.938 5.313-4.719 0-2.781-1.875-4.562-5.313-4.562h-4.062zm0 1.718h4.062c2.188 0 3.406 1.282 3.406 2.813 0 1.563-1.218 3.063-3.406 3.063h-4.062v-5.875z" fill="#212B31"/></svg>