<svg width="48" height="48" fill="none" xmlns="http://www.w3.org/2000/svg"><g clip-path="url(#clip0)"><path d="M33.295 48c11.019 0 17.307-12.625 13.672-25.747-3.634-13.122-13.001-4.927-20.3-17.027C18.654-8.064 1.387 6.339 0 22.253.53 30.835 7.93 48 33.295 48z" fill="#E6F1F9"/><path d="M12.75 35.25V25.162c1.103-.587 3.46-1.503 6.16-1.503 1.716 0 3.15 1.008 4.883 2.225l.003.002c1.656 1.164 3.57 2.5 6.022 2.5 2.425 0 4.246-.864 5.432-1.79v8.654h-22.5z" stroke="#036FC7" stroke-width="1.5"/><path d="M17 15a1 1 0 012 0v8.16L17 24v-9zm6-2a1 1 0 012 0v13l-2-.994V13zm6 2a1 1 0 012 0v13h-2V15z" fill="#036FC7"/><path d="M13 17a1 1 0 011-1h20a1 1 0 010 2H14a1 1 0 01-1-1zm0 4a1 1 0 011-1h20a1 1 0 010 2H14a1 1 0 01-1-1zm2 6h2v2h-2v-2zm1 4h2v2h-2v-2zm5-2h2v2h-2v-2zm6 2h2v2h-2v-2zm4-1h2v2h-2v-2z" fill="#036FC7"/></g><defs><clipPath id="clip0"><path fill="#fff" d="M0 0h48v48H0z"/></clipPath></defs></svg>