<svg width="48" height="48" fill="none" xmlns="http://www.w3.org/2000/svg"><g clip-path="url(#clip0)"><path d="M46.967 25.747C50.602 12.625 44.314 0 33.295 0c-6.097 0-8.7 3.504-15.397 11.663C11.2 19.822 1.65 8.478 0 25.747 1.386 41.66 18.652 56.064 26.668 42.774c7.298-12.1 16.665-3.906 20.3-17.027h-.001z" fill="#E6F1F9"/><path fill-rule="evenodd" clip-rule="evenodd" d="M12 14h2v7h7v-7h2v8a1 1 0 01-1 1h-9a1 1 0 01-1-1v-8zm13 0h2v7h7v-7h2v8a1 1 0 01-1 1h-9a1 1 0 01-1-1v-8zM12 25h2v7h7v-7h2v8a1 1 0 01-1 1h-9a1 1 0 01-1-1v-8zm13 0h2v7h7v-7h2v8a1 1 0 01-1 1h-9a1 1 0 01-1-1v-8z" fill="#036FC7"/></g><defs><clipPath id="clip0"><path fill="#fff" d="M0 0h48v48H0z"/></clipPath></defs></svg>