<svg width="48" height="48" fill="none" xmlns="http://www.w3.org/2000/svg"><g clip-path="url(#clip0)"><path d="M46.967 25.82C50.602 12.7 44.314.075 33.295.075c-6.097 0-14.795 1-18.397 9.663C11.427 18.084.5 10.574 0 27.82c0 14.253 20.876 27.916 26.668 15.027 5.792-12.889 16.665-3.906 20.3-17.027h-.001z" fill="#E8F3FE"/><path fill-rule="evenodd" clip-rule="evenodd" d="M33 24a9 9 0 11-18 0 9 9 0 0118 0zm2 0c0 6.075-4.925 11-11 11s-11-4.925-11-11 4.925-11 11-11 11 4.925 11 11zm-12.5 5L18 24.5l1.5-1.5 3 3 6-6 1.5 1.5-7.5 7.5z" fill="#2C70C1"/></g><defs><clipPath id="clip0"><path fill="#fff" d="M0 0h48v48H0z"/></clipPath></defs></svg>