<svg width="48" height="48" fill="none" xmlns="http://www.w3.org/2000/svg"><g clip-path="url(#clip0)"><path d="M33.295 48c11.019 0 17.307-12.625 13.672-25.747-3.634-13.122-13.001-4.927-20.3-17.027C18.654-8.064 1.387 6.339 0 22.253.53 30.835 7.93 48 33.295 48z" fill="#FFDD76"/><path d="M24 12c-1.17 0-2.216.78-2.916 2.01l-2.656 4.65 1.617.96L22.67 15c.473-.833.95-1.08 1.328-1.08.38 0 .856.247 1.328 1.08l2.887 5.07-1.472.93 4.619 2.88v-5.76l-1.56.96-2.886-5.07C26.215 12.78 25.17 12 24 12zm-5.601 8.61l-4.619 2.88 1.415.87-2.57 4.53c-.696 1.226-.851 2.584-.26 3.63.592 1.046 1.79 1.56 3.176 1.56h5.687v-1.92h-5.687c-.956 0-1.41-.315-1.588-.63-.176-.315-.212-.847.26-1.68l2.54-4.5 1.646 1.02v-5.76zm14.723 4.41l-1.56.99 2.224 3.84c.476.836.436 1.365.26 1.68-.177.315-.632.63-1.588.63h-4.763v-1.92l-4.62 2.88 4.62 2.88v-1.92h4.763c1.386 0 2.584-.514 3.175-1.56.592-1.046.44-2.4-.26-3.63v-.03l-2.251-3.84z" fill="#63522B"/></g><defs><clipPath id="clip0"><path fill="#fff" d="M0 0h48v48H0z"/></clipPath></defs></svg>