<svg width="40" height="40" fill="none" xmlns="http://www.w3.org/2000/svg"><path d="M18.12 1.73c6.76 3.153 8.323 7.086 8.656 9.15.376 2.356-.455 4.137-1.283 4.944-.838.82-1.722 1.234-2.628 1.234-.261 0-.506-.035-.733-.093L17.161 2.48a.731.731 0 01.267-.67l.692-.08zm0-.002a.667.667 0 00-.692.082l.692-.082zm0 0l-.212.453c6.62 3.09 8.069 6.888 8.374 8.776.353 2.208-.434 3.822-1.138 4.508h-.001c-.772.757-1.537 1.092-2.278 1.092-.219 0-.437-.03-.648-.088.674-4.185.072-7.198-1.108-10.28a1.179 1.179 0 00-1.55-.689l-.007.003a1.23 1.23 0 00-.654 1.574c1.125 2.94 1.634 5.64.863 9.664-.462.14-.92.258-1.355.258-1.136 0-2.067-.367-2.765-1.005-.7-.64-1.196-1.58-1.4-2.775-.528-3.094.824-5.244 2-7.092l.022-.035c.384-.604.766-1.206 1.032-1.79.273-.598.449-1.23.361-1.888a.231.231 0 01.08-.21l-.308-.394.692-.082zm0 0l-.211.454a.174.174 0 00-.09-.015.172.172 0 00-.082.036l-.309-.393.692-.082zm3.439 15.574a4.015 4.015 0 01-.13-.055l-.105-.045c-.091.05-.186.097-.283.141l.518-.04zm0 0l-.399-.582-.043.234-.061.105.037.021-.052.263.518-.04zm0 0a34.998 34.998 0 01-1.014 3.873l1.014-3.873zm0 0l-1.014 3.873 1.014-3.873zm-.518.041a34.778 34.778 0 01-.972 3.68l.972-3.68zm0 0a5.687 5.687 0 01-.415.17l.415-.17zm-.972 3.68l.557-3.51-.557 3.51zm0 0c-.032.098-.112.143-.178.143a.127.127 0 01-.044-.009l-.009-.003c-.085-.03-.163-.146-.12-.284.356-1.1.658-2.217.904-3.347l-.553 3.5zm0 0l.553-3.5-.553 3.5zm.557-3.51l-.002.01h-.002l.004-.01zm0 0l-.004.01.004-.01zm-.081 3.662a.694.694 0 01-.654.491.623.623 0 01-.214-.04c-.362-.123-.555-.53-.436-.907l1.304.456zM3.261 25l.401-.298-.012-.017-.013-.015-.133-.15c-.379-.428-.678-.767-.908-1.245-.25-.52-.429-1.24-.429-2.44v-10c0-.718.235-1.205.56-1.514.33-.314.798-.487 1.331-.487.533 0 1 .173 1.331.487.325.31.56.796.56 1.513v7.135a1.446 1.446 0 00-.095.055 2 2 0 00-.464.422 3.19 3.19 0 00-.626 1.347c-.237 1.107.015 2.523 1.308 3.89l3.496 3.903.003.004a1.113 1.113 0 001.663-.002 1.265 1.265 0 00-.003-1.685l-3.818-4.242-.003-.003c-.532-.58-.535-1.515.013-2.115h.001c.072-.08.315-.302.652-.363.293-.053.775-.006 1.41.656l3.815 4.255.005.005.005.005c1.635 1.72 3 3.845 3 6.732V37.5c0 .096 0 .16-.007.218a.245.245 0 01-.017.072.664.664 0 01-.272.044H9.638a.902.902 0 01-.124-.007.366.366 0 01-.11-.03.076.076 0 01-.036-.029c-.005-.008-.027-.048-.027-.15v-5.282l-.097-.132c-.412-.56-1.809-2.436-3.1-4.17l-1.726-2.318-.55-.738-.152-.205-.04-.053-.01-.014-.003-.003v0L3.261 25zm30.79-7.03v-7.136c0-.717.235-1.204.56-1.513.33-.314.798-.487 1.331-.487.533 0 1 .173 1.331.487.325.31.56.796.56 1.513v10c0 1.2-.178 1.92-.428 2.441-.23.478-.53.817-.908 1.245l-.133.15-.013.015-.012.017.4.298-.4-.298h-.001l-.003.004-.01.014-.04.053-.152.205-.55.738-1.726 2.317a1679.026 1679.026 0 00-3.1 4.17l-.097.133v5.281c0 .103-.022.143-.028.151a.073.073 0 01-.034.028.366.366 0 01-.111.03.901.901 0 01-.124.007h-6.377a.664.664 0 01-.272-.043.251.251 0 01-.017-.072 1.745 1.745 0 01-.008-.218v-6.667c0-2.887 1.365-5.013 3-6.732l.006-.005.005-.005 3.815-4.255c.635-.662 1.117-.709 1.41-.656.337.06.58.28.656.363.545.6.542 1.535.012 2.116l-.002.002-3.821 4.243h-.002a1.265 1.265 0 000 1.684 1.114 1.114 0 001.662.002l.003-.004 3.495-3.904c1.294-1.366 1.545-2.782 1.309-3.889a3.19 3.19 0 00-.627-1.346 2 2 0 00-.464-.423 1.378 1.378 0 00-.095-.055z" fill="#2C70C1" stroke="#2C70C1"/></svg>