<svg width="48" height="48" fill="none" xmlns="http://www.w3.org/2000/svg"><g clip-path="url(#clip0)"><path d="M1.033 25.747C-2.602 12.625 3.686 0 14.705 0c6.097 0 8.7 3.504 15.397 11.663C36.8 19.822 46.35 8.478 48 25.747 46.614 41.66 29.348 56.064 21.332 42.774c-7.298-12.1-16.665-3.906-20.3-17.027h.001z" fill="#E6F1F9"/><path d="M15 13c-.6 0-1 .4-1 1v6c0 .6.4 1 1 1h15c.6 0 1-.4 1-1v-2h1v5h-8c-1.093 0-2 .907-2 2v2c-.6 0-1 .4-1 1v6c0 .6.4 1 1 1h2c.6 0 1-.4 1-1v-6c0-.6-.4-1-1-1v-2h8c1.093 0 2-.907 2-2v-5c0-1.093-.907-2-2-2h-1v-2c0-.6-.4-1-1-1H15zm1 2h13v4H16v-4z" fill="#036FC7"/></g><defs><clipPath id="clip0"><path fill="#fff" d="M0 0h48v48H0z"/></clipPath></defs></svg>