<svg width="48" height="48" fill="none" xmlns="http://www.w3.org/2000/svg"><g clip-path="url(#clip0)"><path d="M1.033 22.253C-2.602 35.375 3.686 48 14.705 48c6.097 0 14.795-1 18.397-9.663C36.573 29.99 47.5 37.5 48 20.253 48 6 27.124-7.664 21.332 5.226 15.54 18.116 4.667 9.13 1.032 22.253h.001z" fill="#E8F3FE"/><path d="M25.557 21.724c.052.007.106.01.162.01.378 0 .79-.17 1.227-.597.373-.364.828-1.265.626-2.53-.17-1.05-.975-3.234-4.767-5.048.021.396-.092.768-.246 1.106-.166.363-.401.734-.629 1.092l-.017.027c-.706 1.11-1.474 2.34-1.171 4.114l4.815 1.826zm0 0c.363-2.454-.005-4.252-.705-6.081a.908.908 0 00-1.192-.528l-.007.003a.938.938 0 00-.5 1.2c.651 1.706.952 3.263.53 5.57l1.874-.164zm0 0l-1.875.164 1.875-.164zm-1.875.164a2.39 2.39 0 01-.638.112c-.636 0-1.146-.205-1.524-.55-.382-.35-.662-.871-.778-1.551l2.94 1.989zM13.957 27l.4-.3-.012-.015-.013-.015-.079-.09c-.23-.26-.39-.441-.515-.701-.134-.278-.238-.68-.238-1.38v-6c0-.382.124-.62.274-.762.155-.147.384-.237.66-.237.278 0 .506.09.661.237.15.143.275.38.275.763v4.17a1.429 1.429 0 00-.29.27c-.207.261-.35.567-.417.894-.157.732.016 1.647.833 2.51l2.095 2.34.003.005a.87.87 0 001.294-.002.959.959 0 000-1.278l-.002-.002-2.29-2.544-.003-.003a.75.75 0 01.008-1h.002a.547.547 0 01.278-.155c.097-.018.321-.023.664.333l2.287 2.55.005.005.005.006c.962 1.012 1.745 2.24 1.745 3.9v4h-3.783v-3.163l-.097-.132c-.962-1.3-1.928-2.599-2.896-3.894l-.33-.443-.091-.123-.024-.032-.006-.008-.002-.002-.401.298zm17.451-2.14l-.002.003-2.292 2.544-.002.002a.959.959 0 000 1.277.867.867 0 001.294.003l.003-.004 2.095-2.34c.817-.864.99-1.78.834-2.511a2.114 2.114 0 00-.417-.893 1.428 1.428 0 00-.29-.272v-4.17c0-.382.124-.62.274-.762.155-.147.383-.237.66-.237s.506.09.66.237c.15.143.275.38.275.763v6c0 .7-.104 1.1-.238 1.379-.125.26-.286.442-.515.702l-.079.089-.013.015-.012.016.4.3-.4-.3v0l-.002.003-.007.008-.024.032-.091.123-.33.443c-.966 1.297-1.931 2.595-2.896 3.894l-.097.132V34.5h-3.783v-4c0-1.661.783-2.89 1.745-3.901l.005-.006.005-.005 2.287-2.55c.343-.357.567-.35.664-.333.14.025.25.12.282.156a.754.754 0 01.007 1v-.001z" fill="#2C70C1" stroke="#2C70C1"/></g><defs><clipPath id="clip0"><path fill="#fff" d="M0 0h48v48H0z"/></clipPath></defs></svg>