<svg width="48" height="48" fill="none" xmlns="http://www.w3.org/2000/svg"><g clip-path="url(#clip0)"><path d="M46.967 25.747C50.602 12.625 44.314 0 33.295 0c-6.097 0-8.7 3.504-15.397 11.663C11.2 19.822 1.65 8.478 0 25.747 1.386 41.66 18.652 56.064 26.668 42.774c7.298-12.1 16.665-3.906 20.3-17.027h-.001z" fill="#E6F1F9"/><path d="M13 12h2v23h-2V12zm20 0h2v23h-2V12z" fill="#036FC7"/><path d="M12 34h4v2h-4v-2zm20 0h4v2h-4v-2zM13 14h22v2H13v-2zm0 15h21v2H13v-2z" fill="#036FC7"/><path d="M14 16l20 13m-20 0l20-13-20 13z" stroke="#036FC7" stroke-width="2" stroke-linejoin="bevel"/></g><defs><clipPath id="clip0"><path fill="#fff" d="M0 0h48v48H0z"/></clipPath></defs></svg>