<svg width="48" height="48" fill="none" xmlns="http://www.w3.org/2000/svg"><g clip-path="url(#clip0)"><path d="M46.967 22.253C50.602 35.375 44.314 48 33.295 48c-6.097 0-8.7-3.504-15.397-11.663C11.2 28.177 1.65 39.522 0 22.253 1.386 6.34 18.652-8.064 26.668 5.226c7.298 12.1 16.665 3.905 20.3 17.027h-.001z" fill="#FFDD76"/><path d="M23.493 15.515h.001a.3.3 0 01.183 0l10.636 3.388.037.012.039.006a.32.32 0 01.195.111c.055.067.086.15.087.236v.014l.001.015v9.08l.243.146c.347.21.585.596.585 1.048 0 .127-.065.38-.219.74-.145.343-.342.724-.545 1.085-.135.242-.27.471-.391.67-.12-.199-.256-.428-.392-.669-.2-.352-.382-.715-.545-1.086-.153-.36-.218-.613-.218-.74 0-.452.238-.839.585-1.048l.242-.146v-8.615l-.652.207-9.687 3.087a.303.303 0 01-.184 0l-10.759-3.428a.33.33 0 01-.166-.124.379.379 0 010-.437.33.33 0 01.166-.124l10.758-3.428zm-6.029 12.73V23.98l5.238 1.67a2.894 2.894 0 001.767 0l5.238-1.67v4.266l-.125.012c-.382.043-.923.127-1.57.295-1.216.314-2.81.925-4.426 2.107a13.052 13.052 0 00-4.427-2.107 11.282 11.282 0 00-1.695-.307z" fill="#63522B" stroke="#63522B"/></g><defs><clipPath id="clip0"><path fill="#fff" d="M0 0h48v48H0z"/></clipPath></defs></svg>