<svg width="48" height="48" fill="none" xmlns="http://www.w3.org/2000/svg"><g clip-path="url(#clip0)"><path d="M1.033 25.747C-2.602 12.625 3.686 0 14.705 0c6.097 0 8.7 3.504 15.397 11.663C36.8 19.822 46.35 8.478 48 25.747 46.614 41.66 29.348 56.064 21.332 42.774c-7.298-12.1-16.665-3.906-20.3-17.027h.001z" fill="#E6F1F9"/><path d="M20.727 12l-1.09 2H12v2h2l1 18c.156 1.2 1.176 2 2.518 2h12.936c1.343 0 2.39-.8 2.546-2l1-18h2v-2h-7.636l-1.091-2h-6.546zM16 16h16l-1 18H17l-1-18zm4 3l.727 9.5c0 .662.598 1.5 1.334 1.5H23V19h-3zm5 0v11h1.182c.736 0 1.09-.838 1.09-1.5L28 19h-3z" fill="#036FC7"/></g><defs><clipPath id="clip0"><path fill="#fff" d="M0 0h48v48H0z"/></clipPath></defs></svg>